<svg xmlns="http://www.w3.org/2000/svg" width="100%" height="100%" viewBox="0 0 1440 320">
  <defs>
    <linearGradient id="gradient" x1="0%" y1="0%" x2="100%" y2="100%">
      <stop offset="0%" style="stop-color:#6C63FF; stop-opacity:1" />
      <stop offset="100%" style="stop-color:#3F3D56; stop-opacity:1" />
    </linearGradient>
  </defs>
  <path fill="url(#gradient)" fill-opacity="1"
    d="M0,160L48,149.3C96,139,192,117,288,133.3C384,149,480,203,576,218.7C672,235,768,213,864,181.3C960,149,1056,107,1152,85.3C1248,64,1344,64,1392,64L1440,64L1440,320L1392,320C1344,320,1248,320,1152,320C1056,320,960,320,864,320C768,320,672,320,576,320C480,320,384,320,288,320C192,320,96,320,48,320L0,320Z">
  </path>
</svg>
